<?xml version="1.0" ?><svg style="enable-background:new 0 0 100 100;" version="1.1" viewBox="0 0 100 100" xml:space="preserve" xmlns="http://www.w3.org/2000/svg" xmlns:xlink="http://www.w3.org/1999/xlink"><style type="text/css">
	.st0{fill:#FFFFFF;}
	.st1{fill:none;stroke:#000000;stroke-width:3;stroke-linecap:round;stroke-linejoin:round;stroke-miterlimit:10;}
	
		.st2{fill-rule:evenodd;clip-rule:evenodd;fill:none;stroke:#000000;stroke-width:3;stroke-linecap:round;stroke-linejoin:round;stroke-miterlimit:10;}
	.st3{fill-rule:evenodd;clip-rule:evenodd;}
	
		.st4{fill-rule:evenodd;clip-rule:evenodd;fill:none;stroke:#040404;stroke-width:3;stroke-linecap:round;stroke-linejoin:round;stroke-miterlimit:10;}
	.st5{fill-rule:evenodd;clip-rule:evenodd;fill:#040404;}
	.st6{fill:none;}
	.st7{fill:none;stroke:#000000;stroke-width:3;stroke-miterlimit:10;}
	.st8{fill:none;stroke:#FFFFFF;stroke-miterlimit:10;}
	.st9{fill:#040404;}
</style><g id="Layer_1"/><g id="Layer_2"><g><path d="M77.964,21.851C64.547,7.948,41.157,6.457,26.089,18.552c-1.425,1.134,0.26,3.277,1.694,2.185    c23.859-18.569,59.01-1.301,58.925,28.933C86.7,69.828,70.296,86.227,50.126,86.227c-7.121,0.024-14.034-2.125-19.999-5.918    c-0.318-0.188-0.7-0.24-1.055-0.148L17.025,83.32c0,0,3.202-11.689,3.202-11.689c0.102-0.374,0.043-0.774-0.163-1.102    c-9.668-13.701-8.366-33.598,3.301-45.752c1.215-1.325-0.762-3.206-2.026-1.883c-6.788,7.3-10.529,16.798-10.533,26.745    c-0.017,7.8,2.314,15.374,6.594,21.847c0,0-3.674,13.413-3.674,13.413c-0.3,0.981,0.692,2.001,1.684,1.703    c0,0,13.806-3.62,13.806-3.62C69.034,107.092,110.293,55.326,77.964,21.851z"/><path d="M83.418,16.402C44.483-21.442-16.819,24.896,9.089,72.643c-0.001,0-6.327,23.101-6.327,23.101    c-0.3,0.982,0.696,2,1.684,1.703c0,0,23.68-6.21,23.68-6.21C75.648,115.892,120.907,54.643,83.418,16.402z M50.121,93.937    c-7.382-0.003-14.699-1.866-21.158-5.389c-0.31-0.168-0.672-0.211-1.013-0.123l-21.889,5.74l5.845-21.342    c0.098-0.356,0.049-0.737-0.136-1.057C-5.299,42.77,16.451,5.082,50.14,5.376c23.813-0.481,44.778,20.485,44.277,44.298    C94.407,74.08,74.545,93.937,50.121,93.937z"/><path d="M41.689,44.499c0.816-0.897,1.467-1.881,1.888-2.859c0.761-1.524,0.117-2.812-0.094-3.234    c-0.792-1.843-2.71-6.71-3.496-8.423c-1.112-2.469-2.529-2.73-3.767-2.781c-2.361,0.015-4.073-0.533-6.518,2.075    c-1.24,1.323-4.145,4.42-4.145,10.222c0.061,5.74,3.481,10.629,5.14,12.929c5.652,8.378,12.714,14.55,19.883,17.378    c6.625,2.612,9.798,3.144,11.849,3.143c0.986-0.002,1.634-0.114,2.474-0.198c1.301-0.118,3.18-0.884,4.904-1.999    c0.642-0.415,0.825-1.271,0.41-1.912c-0.416-0.643-1.272-0.823-1.912-0.41c-1.976,1.209-2.962,1.537-4.295,1.637    c-1.793,0.212-4.028,0.474-12.416-2.833c-6.753-2.625-13.608-8.791-18.901-16.779c-3.971-5.15-6.912-13.446-0.974-19.285    c1.515-1.74,2.758-1.136,4.385-1.204c0.607,0.025,0.859,0.036,1.363,1.157c0.693,1.501,2.896,7.071,3.542,8.52    c0.308,0.622,0.11,0.678-0.068,1.092c-0.55,1.199-1.613,2.276-2.426,3.207c-0.529,0.526-1.936,1.923-0.721,4.005    c0.853,1.462,3.204,5.19,6.621,8.235c3.812,3.399,7.174,4.858,8.789,5.559c1.248,0.46,2.761,1.801,4.819-0.304    c0.573-0.655,2.882-3.355,3.721-4.616c0.25-0.41,0.31-0.23,0.945-0.038c1.477,0.586,7.063,3.353,9.218,4.421    c0.068,0.54,0.014,2.193-0.732,4.281c-0.591,1.702,1.962,2.642,2.605,0.929c0.957-2.683,1.194-5.519,0.548-6.601    c-0.506-0.889-1.721-1.333-2.755-1.856c-0.066-0.033-6.663-3.309-7.941-3.773c-0.901-0.329-2.781-1.015-4.191,1.104    c-0.695,1.042-2.81,3.537-3.503,4.329c-0.266,0.289-0.197,0.215-0.811-0.04c-2.424-1.122-4.818-1.92-8.874-5.459    c-3.121-2.783-5.287-6.217-6.073-7.565c-0.077-0.132-0.098-0.207-0.107-0.212C40.575,45.746,41.164,45.186,41.689,44.499z"/></g></g></svg>